<mxfile host="app.diagrams.net" agent="Mozilla/5.0 (Windows NT 10.0; Win64; x64) AppleWebKit/537.36 (KHTML, like Gecko) Chrome/123.0.0.0 Safari/537.36" version="26.1.1">
  <diagram id="prtHgNgQTEPvFCAcTncT" name="Page-1">
    <mxGraphModel dx="1793" dy="975" grid="0" gridSize="10" guides="1" tooltips="1" connect="1" arrows="1" fold="1" page="0" pageScale="1" pageWidth="827" pageHeight="1169" math="0" shadow="0">
      <root>
        <mxCell id="0" />
        <mxCell id="1" parent="0" />
        <mxCell id="KFw7_NxjIXX5zIOPV5az-405" value="教师" style="shape=umlLifeline;perimeter=lifelinePerimeter;whiteSpace=wrap;container=1;dropTarget=0;collapsible=0;recursiveResize=0;outlineConnect=0;portConstraint=eastwest;newEdgeStyle={&quot;edgeStyle&quot;:&quot;elbowEdgeStyle&quot;,&quot;elbow&quot;:&quot;vertical&quot;,&quot;curved&quot;:0,&quot;rounded&quot;:0};participant=umlActor;verticalAlign=bottom;labelPosition=center;verticalLabelPosition=top;align=center;size=65;" vertex="1" parent="1">
          <mxGeometry x="225" y="380" width="35" height="2642" as="geometry" />
        </mxCell>
        <mxCell id="KFw7_NxjIXX5zIOPV5az-406" value="问卷管理界面" style="shape=umlLifeline;perimeter=lifelinePerimeter;whiteSpace=wrap;container=1;dropTarget=0;collapsible=0;recursiveResize=0;outlineConnect=0;portConstraint=eastwest;newEdgeStyle={&quot;edgeStyle&quot;:&quot;elbowEdgeStyle&quot;,&quot;elbow&quot;:&quot;vertical&quot;,&quot;curved&quot;:0,&quot;rounded&quot;:0};size=65;" vertex="1" parent="1">
          <mxGeometry x="519" y="380" width="150" height="2642" as="geometry" />
        </mxCell>
        <mxCell id="KFw7_NxjIXX5zIOPV5az-407" value="统计分析界面" style="shape=umlLifeline;perimeter=lifelinePerimeter;whiteSpace=wrap;container=1;dropTarget=0;collapsible=0;recursiveResize=0;outlineConnect=0;portConstraint=eastwest;newEdgeStyle={&quot;edgeStyle&quot;:&quot;elbowEdgeStyle&quot;,&quot;elbow&quot;:&quot;vertical&quot;,&quot;curved&quot;:0,&quot;rounded&quot;:0};size=65;" vertex="1" parent="1">
          <mxGeometry x="719" y="380" width="150" height="2642" as="geometry" />
        </mxCell>
        <mxCell id="KFw7_NxjIXX5zIOPV5az-408" value="反馈编辑界面" style="shape=umlLifeline;perimeter=lifelinePerimeter;whiteSpace=wrap;container=1;dropTarget=0;collapsible=0;recursiveResize=0;outlineConnect=0;portConstraint=eastwest;newEdgeStyle={&quot;edgeStyle&quot;:&quot;elbowEdgeStyle&quot;,&quot;elbow&quot;:&quot;vertical&quot;,&quot;curved&quot;:0,&quot;rounded&quot;:0};size=65;" vertex="1" parent="1">
          <mxGeometry x="919" y="380" width="150" height="2642" as="geometry" />
        </mxCell>
        <mxCell id="KFw7_NxjIXX5zIOPV5az-409" value="Controller" style="shape=umlLifeline;perimeter=lifelinePerimeter;whiteSpace=wrap;container=1;dropTarget=0;collapsible=0;recursiveResize=0;outlineConnect=0;portConstraint=eastwest;newEdgeStyle={&quot;edgeStyle&quot;:&quot;elbowEdgeStyle&quot;,&quot;elbow&quot;:&quot;vertical&quot;,&quot;curved&quot;:0,&quot;rounded&quot;:0};size=65;" vertex="1" parent="1">
          <mxGeometry x="1119" y="380" width="150" height="2642" as="geometry" />
        </mxCell>
        <mxCell id="KFw7_NxjIXX5zIOPV5az-410" value="Service" style="shape=umlLifeline;perimeter=lifelinePerimeter;whiteSpace=wrap;container=1;dropTarget=0;collapsible=0;recursiveResize=0;outlineConnect=0;portConstraint=eastwest;newEdgeStyle={&quot;edgeStyle&quot;:&quot;elbowEdgeStyle&quot;,&quot;elbow&quot;:&quot;vertical&quot;,&quot;curved&quot;:0,&quot;rounded&quot;:0};size=65;" vertex="1" parent="1">
          <mxGeometry x="1367" y="380" width="150" height="2642" as="geometry" />
        </mxCell>
        <mxCell id="KFw7_NxjIXX5zIOPV5az-411" value="数据库" style="shape=umlLifeline;perimeter=lifelinePerimeter;whiteSpace=wrap;container=1;dropTarget=0;collapsible=0;recursiveResize=0;outlineConnect=0;portConstraint=eastwest;newEdgeStyle={&quot;edgeStyle&quot;:&quot;elbowEdgeStyle&quot;,&quot;elbow&quot;:&quot;vertical&quot;,&quot;curved&quot;:0,&quot;rounded&quot;:0};size=65;" vertex="1" parent="1">
          <mxGeometry x="1631" y="380" width="150" height="2642" as="geometry" />
        </mxCell>
        <mxCell id="KFw7_NxjIXX5zIOPV5az-412" value="进入问卷管理查看已关闭问卷" style="verticalAlign=bottom;edgeStyle=elbowEdgeStyle;elbow=vertical;curved=0;rounded=0;endArrow=block;" edge="1" parent="1" source="KFw7_NxjIXX5zIOPV5az-405" target="KFw7_NxjIXX5zIOPV5az-406">
          <mxGeometry relative="1" as="geometry">
            <Array as="points">
              <mxPoint x="456" y="487" />
            </Array>
          </mxGeometry>
        </mxCell>
        <mxCell id="KFw7_NxjIXX5zIOPV5az-413" value="请求已关闭问卷列表" style="verticalAlign=bottom;edgeStyle=elbowEdgeStyle;elbow=vertical;curved=0;rounded=0;endArrow=block;" edge="1" parent="1" source="KFw7_NxjIXX5zIOPV5az-406" target="KFw7_NxjIXX5zIOPV5az-409">
          <mxGeometry relative="1" as="geometry">
            <Array as="points">
              <mxPoint x="903" y="539" />
            </Array>
          </mxGeometry>
        </mxCell>
        <mxCell id="KFw7_NxjIXX5zIOPV5az-414" value="获取已关闭问卷列表" style="verticalAlign=bottom;edgeStyle=elbowEdgeStyle;elbow=vertical;curved=0;rounded=0;endArrow=block;" edge="1" parent="1" source="KFw7_NxjIXX5zIOPV5az-409" target="KFw7_NxjIXX5zIOPV5az-410">
          <mxGeometry relative="1" as="geometry">
            <Array as="points">
              <mxPoint x="1327" y="591" />
            </Array>
          </mxGeometry>
        </mxCell>
        <mxCell id="KFw7_NxjIXX5zIOPV5az-415" value="查询教师创建的已关闭问卷" style="verticalAlign=bottom;edgeStyle=elbowEdgeStyle;elbow=vertical;curved=0;rounded=0;endArrow=block;" edge="1" parent="1" source="KFw7_NxjIXX5zIOPV5az-410" target="KFw7_NxjIXX5zIOPV5az-411">
          <mxGeometry relative="1" as="geometry">
            <Array as="points">
              <mxPoint x="1583" y="643" />
            </Array>
          </mxGeometry>
        </mxCell>
        <mxCell id="KFw7_NxjIXX5zIOPV5az-416" value="返回已关闭问卷数据" style="verticalAlign=bottom;edgeStyle=elbowEdgeStyle;elbow=vertical;curved=0;rounded=0;dashed=1;dashPattern=2 3;endArrow=block;" edge="1" parent="1" source="KFw7_NxjIXX5zIOPV5az-411" target="KFw7_NxjIXX5zIOPV5az-410">
          <mxGeometry relative="1" as="geometry">
            <Array as="points">
              <mxPoint x="1586" y="695" />
            </Array>
          </mxGeometry>
        </mxCell>
        <mxCell id="KFw7_NxjIXX5zIOPV5az-417" value="返回问卷列表数据" style="verticalAlign=bottom;edgeStyle=elbowEdgeStyle;elbow=vertical;curved=0;rounded=0;dashed=1;dashPattern=2 3;endArrow=block;" edge="1" parent="1" source="KFw7_NxjIXX5zIOPV5az-410" target="KFw7_NxjIXX5zIOPV5az-409">
          <mxGeometry relative="1" as="geometry">
            <Array as="points">
              <mxPoint x="1330" y="747" />
            </Array>
          </mxGeometry>
        </mxCell>
        <mxCell id="KFw7_NxjIXX5zIOPV5az-418" value="返回已关闭问卷列表" style="verticalAlign=bottom;edgeStyle=elbowEdgeStyle;elbow=vertical;curved=0;rounded=0;dashed=1;dashPattern=2 3;endArrow=block;" edge="1" parent="1" source="KFw7_NxjIXX5zIOPV5az-409" target="KFw7_NxjIXX5zIOPV5az-406">
          <mxGeometry relative="1" as="geometry">
            <Array as="points">
              <mxPoint x="906" y="799" />
            </Array>
          </mxGeometry>
        </mxCell>
        <mxCell id="KFw7_NxjIXX5zIOPV5az-419" value="显示已关闭问卷列表和筛选选项" style="verticalAlign=bottom;edgeStyle=elbowEdgeStyle;elbow=vertical;curved=0;rounded=0;dashed=1;dashPattern=2 3;endArrow=block;" edge="1" parent="1" source="KFw7_NxjIXX5zIOPV5az-406" target="KFw7_NxjIXX5zIOPV5az-405">
          <mxGeometry relative="1" as="geometry">
            <Array as="points">
              <mxPoint x="459" y="851" />
            </Array>
          </mxGeometry>
        </mxCell>
        <mxCell id="KFw7_NxjIXX5zIOPV5az-420" value="选择特定问卷分析" style="verticalAlign=bottom;edgeStyle=elbowEdgeStyle;elbow=vertical;curved=0;rounded=0;endArrow=block;" edge="1" parent="1" source="KFw7_NxjIXX5zIOPV5az-405" target="KFw7_NxjIXX5zIOPV5az-406">
          <mxGeometry relative="1" as="geometry">
            <Array as="points">
              <mxPoint x="456" y="903" />
            </Array>
          </mxGeometry>
        </mxCell>
        <mxCell id="KFw7_NxjIXX5zIOPV5az-421" value="请求问卷统计数据" style="verticalAlign=bottom;edgeStyle=elbowEdgeStyle;elbow=vertical;curved=0;rounded=0;endArrow=block;" edge="1" parent="1" source="KFw7_NxjIXX5zIOPV5az-406" target="KFw7_NxjIXX5zIOPV5az-409">
          <mxGeometry relative="1" as="geometry">
            <Array as="points">
              <mxPoint x="903" y="955" />
            </Array>
          </mxGeometry>
        </mxCell>
        <mxCell id="KFw7_NxjIXX5zIOPV5az-422" value="获取问卷回答与统计数据" style="verticalAlign=bottom;edgeStyle=elbowEdgeStyle;elbow=vertical;curved=0;rounded=0;endArrow=block;" edge="1" parent="1" source="KFw7_NxjIXX5zIOPV5az-409" target="KFw7_NxjIXX5zIOPV5az-410">
          <mxGeometry relative="1" as="geometry">
            <Array as="points">
              <mxPoint x="1327" y="1007" />
            </Array>
          </mxGeometry>
        </mxCell>
        <mxCell id="KFw7_NxjIXX5zIOPV5az-423" value="查询问卷回答记录" style="verticalAlign=bottom;edgeStyle=elbowEdgeStyle;elbow=vertical;curved=0;rounded=0;endArrow=block;" edge="1" parent="1" source="KFw7_NxjIXX5zIOPV5az-410" target="KFw7_NxjIXX5zIOPV5az-411">
          <mxGeometry relative="1" as="geometry">
            <Array as="points">
              <mxPoint x="1583" y="1059" />
            </Array>
          </mxGeometry>
        </mxCell>
        <mxCell id="KFw7_NxjIXX5zIOPV5az-424" value="返回问卷回答数据" style="verticalAlign=bottom;edgeStyle=elbowEdgeStyle;elbow=vertical;curved=0;rounded=0;dashed=1;dashPattern=2 3;endArrow=block;" edge="1" parent="1" source="KFw7_NxjIXX5zIOPV5az-411" target="KFw7_NxjIXX5zIOPV5az-410">
          <mxGeometry relative="1" as="geometry">
            <Array as="points">
              <mxPoint x="1586" y="1111" />
            </Array>
          </mxGeometry>
        </mxCell>
        <mxCell id="KFw7_NxjIXX5zIOPV5az-425" value="计算统计指标(选择率/平均分/标准差)" style="curved=1;endArrow=block;rounded=0;" edge="1" parent="1" source="KFw7_NxjIXX5zIOPV5az-410" target="KFw7_NxjIXX5zIOPV5az-410">
          <mxGeometry relative="1" as="geometry">
            <Array as="points">
              <mxPoint x="1493" y="1163" />
              <mxPoint x="1493" y="1193" />
            </Array>
          </mxGeometry>
        </mxCell>
        <mxCell id="KFw7_NxjIXX5zIOPV5az-426" value="保存统计结果到统计表" style="verticalAlign=bottom;edgeStyle=elbowEdgeStyle;elbow=vertical;curved=0;rounded=0;endArrow=block;" edge="1" parent="1" source="KFw7_NxjIXX5zIOPV5az-410" target="KFw7_NxjIXX5zIOPV5az-411">
          <mxGeometry relative="1" as="geometry">
            <Array as="points">
              <mxPoint x="1583" y="1245" />
            </Array>
          </mxGeometry>
        </mxCell>
        <mxCell id="KFw7_NxjIXX5zIOPV5az-427" value="返回保存结果" style="verticalAlign=bottom;edgeStyle=elbowEdgeStyle;elbow=vertical;curved=0;rounded=0;dashed=1;dashPattern=2 3;endArrow=block;" edge="1" parent="1" source="KFw7_NxjIXX5zIOPV5az-411" target="KFw7_NxjIXX5zIOPV5az-410">
          <mxGeometry relative="1" as="geometry">
            <Array as="points">
              <mxPoint x="1586" y="1297" />
            </Array>
          </mxGeometry>
        </mxCell>
        <mxCell id="KFw7_NxjIXX5zIOPV5az-428" value="返回统计数据" style="verticalAlign=bottom;edgeStyle=elbowEdgeStyle;elbow=vertical;curved=0;rounded=0;dashed=1;dashPattern=2 3;endArrow=block;" edge="1" parent="1" source="KFw7_NxjIXX5zIOPV5az-410" target="KFw7_NxjIXX5zIOPV5az-409">
          <mxGeometry relative="1" as="geometry">
            <Array as="points">
              <mxPoint x="1330" y="1349" />
            </Array>
          </mxGeometry>
        </mxCell>
        <mxCell id="KFw7_NxjIXX5zIOPV5az-429" value="返回完整统计数据" style="verticalAlign=bottom;edgeStyle=elbowEdgeStyle;elbow=vertical;curved=0;rounded=0;dashed=1;dashPattern=2 3;endArrow=block;" edge="1" parent="1" source="KFw7_NxjIXX5zIOPV5az-409" target="KFw7_NxjIXX5zIOPV5az-407">
          <mxGeometry relative="1" as="geometry">
            <Array as="points">
              <mxPoint x="1006" y="1401" />
            </Array>
          </mxGeometry>
        </mxCell>
        <mxCell id="KFw7_NxjIXX5zIOPV5az-430" value="显示统计结果与初步分析" style="verticalAlign=bottom;edgeStyle=elbowEdgeStyle;elbow=vertical;curved=0;rounded=0;dashed=1;dashPattern=2 3;endArrow=block;" edge="1" parent="1" source="KFw7_NxjIXX5zIOPV5az-407" target="KFw7_NxjIXX5zIOPV5az-405">
          <mxGeometry relative="1" as="geometry">
            <Array as="points">
              <mxPoint x="559" y="1453" />
            </Array>
          </mxGeometry>
        </mxCell>
        <mxCell id="KFw7_NxjIXX5zIOPV5az-431" value="查看数据可视化图表" style="verticalAlign=bottom;edgeStyle=elbowEdgeStyle;elbow=vertical;curved=0;rounded=0;endArrow=block;" edge="1" parent="1" source="KFw7_NxjIXX5zIOPV5az-405" target="KFw7_NxjIXX5zIOPV5az-407">
          <mxGeometry relative="1" as="geometry">
            <Array as="points">
              <mxPoint x="556" y="1505" />
            </Array>
          </mxGeometry>
        </mxCell>
        <mxCell id="KFw7_NxjIXX5zIOPV5az-432" value="生成统计图表(柱状图/饼图)" style="curved=1;endArrow=block;rounded=0;" edge="1" parent="1" source="KFw7_NxjIXX5zIOPV5az-407" target="KFw7_NxjIXX5zIOPV5az-407">
          <mxGeometry relative="1" as="geometry">
            <Array as="points">
              <mxPoint x="845" y="1557" />
              <mxPoint x="845" y="1587" />
            </Array>
          </mxGeometry>
        </mxCell>
        <mxCell id="KFw7_NxjIXX5zIOPV5az-433" value="选择数据维度(班级/学期)" style="verticalAlign=bottom;edgeStyle=elbowEdgeStyle;elbow=vertical;curved=0;rounded=0;endArrow=block;" edge="1" parent="1" source="KFw7_NxjIXX5zIOPV5az-405" target="KFw7_NxjIXX5zIOPV5az-407">
          <mxGeometry relative="1" as="geometry">
            <Array as="points">
              <mxPoint x="556" y="1639" />
            </Array>
          </mxGeometry>
        </mxCell>
        <mxCell id="KFw7_NxjIXX5zIOPV5az-434" value="请求筛选后的统计数据" style="verticalAlign=bottom;edgeStyle=elbowEdgeStyle;elbow=vertical;curved=0;rounded=0;endArrow=block;" edge="1" parent="1" source="KFw7_NxjIXX5zIOPV5az-407" target="KFw7_NxjIXX5zIOPV5az-409">
          <mxGeometry relative="1" as="geometry">
            <Array as="points">
              <mxPoint x="1003" y="1691" />
            </Array>
          </mxGeometry>
        </mxCell>
        <mxCell id="KFw7_NxjIXX5zIOPV5az-435" value="获取筛选后的统计数据" style="verticalAlign=bottom;edgeStyle=elbowEdgeStyle;elbow=vertical;curved=0;rounded=0;endArrow=block;" edge="1" parent="1" source="KFw7_NxjIXX5zIOPV5az-409" target="KFw7_NxjIXX5zIOPV5az-410">
          <mxGeometry relative="1" as="geometry">
            <Array as="points">
              <mxPoint x="1327" y="1743" />
            </Array>
          </mxGeometry>
        </mxCell>
        <mxCell id="KFw7_NxjIXX5zIOPV5az-436" value="根据条件查询统计数据" style="verticalAlign=bottom;edgeStyle=elbowEdgeStyle;elbow=vertical;curved=0;rounded=0;endArrow=block;" edge="1" parent="1" source="KFw7_NxjIXX5zIOPV5az-410" target="KFw7_NxjIXX5zIOPV5az-411">
          <mxGeometry relative="1" as="geometry">
            <Array as="points">
              <mxPoint x="1583" y="1795" />
            </Array>
          </mxGeometry>
        </mxCell>
        <mxCell id="KFw7_NxjIXX5zIOPV5az-437" value="返回筛选后数据" style="verticalAlign=bottom;edgeStyle=elbowEdgeStyle;elbow=vertical;curved=0;rounded=0;dashed=1;dashPattern=2 3;endArrow=block;" edge="1" parent="1" source="KFw7_NxjIXX5zIOPV5az-411" target="KFw7_NxjIXX5zIOPV5az-410">
          <mxGeometry relative="1" as="geometry">
            <Array as="points">
              <mxPoint x="1586" y="1847" />
            </Array>
          </mxGeometry>
        </mxCell>
        <mxCell id="KFw7_NxjIXX5zIOPV5az-438" value="返回筛选数据结果" style="verticalAlign=bottom;edgeStyle=elbowEdgeStyle;elbow=vertical;curved=0;rounded=0;dashed=1;dashPattern=2 3;endArrow=block;" edge="1" parent="1" source="KFw7_NxjIXX5zIOPV5az-410" target="KFw7_NxjIXX5zIOPV5az-409">
          <mxGeometry relative="1" as="geometry">
            <Array as="points">
              <mxPoint x="1330" y="1899" />
            </Array>
          </mxGeometry>
        </mxCell>
        <mxCell id="KFw7_NxjIXX5zIOPV5az-439" value="返回更新的图表数据" style="verticalAlign=bottom;edgeStyle=elbowEdgeStyle;elbow=vertical;curved=0;rounded=0;dashed=1;dashPattern=2 3;endArrow=block;" edge="1" parent="1" source="KFw7_NxjIXX5zIOPV5az-409" target="KFw7_NxjIXX5zIOPV5az-407">
          <mxGeometry relative="1" as="geometry">
            <Array as="points">
              <mxPoint x="1006" y="1951" />
            </Array>
          </mxGeometry>
        </mxCell>
        <mxCell id="KFw7_NxjIXX5zIOPV5az-440" value="展示筛选后的统计图表" style="verticalAlign=bottom;edgeStyle=elbowEdgeStyle;elbow=vertical;curved=0;rounded=0;dashed=1;dashPattern=2 3;endArrow=block;" edge="1" parent="1" source="KFw7_NxjIXX5zIOPV5az-407" target="KFw7_NxjIXX5zIOPV5az-405">
          <mxGeometry relative="1" as="geometry">
            <Array as="points">
              <mxPoint x="559" y="2003" />
            </Array>
          </mxGeometry>
        </mxCell>
        <mxCell id="KFw7_NxjIXX5zIOPV5az-441" value="选择导出统计数据" style="verticalAlign=bottom;edgeStyle=elbowEdgeStyle;elbow=vertical;curved=0;rounded=0;endArrow=block;" edge="1" parent="1" source="KFw7_NxjIXX5zIOPV5az-405" target="KFw7_NxjIXX5zIOPV5az-407">
          <mxGeometry relative="1" as="geometry">
            <Array as="points">
              <mxPoint x="556" y="2055" />
            </Array>
          </mxGeometry>
        </mxCell>
        <mxCell id="KFw7_NxjIXX5zIOPV5az-442" value="请求导出Excel格式数据" style="verticalAlign=bottom;edgeStyle=elbowEdgeStyle;elbow=vertical;curved=0;rounded=0;endArrow=block;" edge="1" parent="1" source="KFw7_NxjIXX5zIOPV5az-407" target="KFw7_NxjIXX5zIOPV5az-409">
          <mxGeometry relative="1" as="geometry">
            <Array as="points">
              <mxPoint x="1003" y="2107" />
            </Array>
          </mxGeometry>
        </mxCell>
        <mxCell id="KFw7_NxjIXX5zIOPV5az-443" value="处理导出请求" style="verticalAlign=bottom;edgeStyle=elbowEdgeStyle;elbow=vertical;curved=0;rounded=0;endArrow=block;" edge="1" parent="1" source="KFw7_NxjIXX5zIOPV5az-409" target="KFw7_NxjIXX5zIOPV5az-410">
          <mxGeometry relative="1" as="geometry">
            <Array as="points">
              <mxPoint x="1327" y="2159" />
            </Array>
          </mxGeometry>
        </mxCell>
        <mxCell id="KFw7_NxjIXX5zIOPV5az-444" value="生成Excel格式文件" style="curved=1;endArrow=block;rounded=0;" edge="1" parent="1" source="KFw7_NxjIXX5zIOPV5az-410" target="KFw7_NxjIXX5zIOPV5az-410">
          <mxGeometry relative="1" as="geometry">
            <Array as="points">
              <mxPoint x="1493" y="2211" />
              <mxPoint x="1493" y="2241" />
            </Array>
          </mxGeometry>
        </mxCell>
        <mxCell id="KFw7_NxjIXX5zIOPV5az-445" value="返回Excel文件流" style="verticalAlign=bottom;edgeStyle=elbowEdgeStyle;elbow=vertical;curved=0;rounded=0;dashed=1;dashPattern=2 3;endArrow=block;" edge="1" parent="1" source="KFw7_NxjIXX5zIOPV5az-410" target="KFw7_NxjIXX5zIOPV5az-409">
          <mxGeometry relative="1" as="geometry">
            <Array as="points">
              <mxPoint x="1330" y="2293" />
            </Array>
          </mxGeometry>
        </mxCell>
        <mxCell id="KFw7_NxjIXX5zIOPV5az-446" value="返回下载链接" style="verticalAlign=bottom;edgeStyle=elbowEdgeStyle;elbow=vertical;curved=0;rounded=0;dashed=1;dashPattern=2 3;endArrow=block;" edge="1" parent="1" source="KFw7_NxjIXX5zIOPV5az-409" target="KFw7_NxjIXX5zIOPV5az-407">
          <mxGeometry relative="1" as="geometry">
            <Array as="points">
              <mxPoint x="1006" y="2345" />
            </Array>
          </mxGeometry>
        </mxCell>
        <mxCell id="KFw7_NxjIXX5zIOPV5az-447" value="提供Excel文件下载" style="verticalAlign=bottom;edgeStyle=elbowEdgeStyle;elbow=vertical;curved=0;rounded=0;dashed=1;dashPattern=2 3;endArrow=block;" edge="1" parent="1" source="KFw7_NxjIXX5zIOPV5az-407" target="KFw7_NxjIXX5zIOPV5az-405">
          <mxGeometry relative="1" as="geometry">
            <Array as="points">
              <mxPoint x="559" y="2397" />
            </Array>
          </mxGeometry>
        </mxCell>
        <mxCell id="KFw7_NxjIXX5zIOPV5az-448" value="基于统计结果创建反馈" style="verticalAlign=bottom;edgeStyle=elbowEdgeStyle;elbow=vertical;curved=0;rounded=0;endArrow=block;" edge="1" parent="1" source="KFw7_NxjIXX5zIOPV5az-405" target="KFw7_NxjIXX5zIOPV5az-408">
          <mxGeometry relative="1" as="geometry">
            <Array as="points">
              <mxPoint x="656" y="2449" />
            </Array>
          </mxGeometry>
        </mxCell>
        <mxCell id="KFw7_NxjIXX5zIOPV5az-449" value="显示反馈编辑表单" style="verticalAlign=bottom;edgeStyle=elbowEdgeStyle;elbow=vertical;curved=0;rounded=0;dashed=1;dashPattern=2 3;endArrow=block;" edge="1" parent="1" source="KFw7_NxjIXX5zIOPV5az-408" target="KFw7_NxjIXX5zIOPV5az-405">
          <mxGeometry relative="1" as="geometry">
            <Array as="points">
              <mxPoint x="659" y="2501" />
            </Array>
          </mxGeometry>
        </mxCell>
        <mxCell id="KFw7_NxjIXX5zIOPV5az-450" value="填写反馈内容并选择反馈类型" style="verticalAlign=bottom;edgeStyle=elbowEdgeStyle;elbow=vertical;curved=0;rounded=0;endArrow=block;" edge="1" parent="1" source="KFw7_NxjIXX5zIOPV5az-405" target="KFw7_NxjIXX5zIOPV5az-408">
          <mxGeometry relative="1" as="geometry">
            <Array as="points">
              <mxPoint x="656" y="2553" />
            </Array>
          </mxGeometry>
        </mxCell>
        <mxCell id="KFw7_NxjIXX5zIOPV5az-451" value="提交反馈内容" style="verticalAlign=bottom;edgeStyle=elbowEdgeStyle;elbow=vertical;curved=0;rounded=0;endArrow=block;" edge="1" parent="1" source="KFw7_NxjIXX5zIOPV5az-408" target="KFw7_NxjIXX5zIOPV5az-409">
          <mxGeometry relative="1" as="geometry">
            <Array as="points">
              <mxPoint x="1103" y="2605" />
            </Array>
          </mxGeometry>
        </mxCell>
        <mxCell id="KFw7_NxjIXX5zIOPV5az-452" value="处理反馈创建请求" style="verticalAlign=bottom;edgeStyle=elbowEdgeStyle;elbow=vertical;curved=0;rounded=0;endArrow=block;" edge="1" parent="1" source="KFw7_NxjIXX5zIOPV5az-409" target="KFw7_NxjIXX5zIOPV5az-410">
          <mxGeometry relative="1" as="geometry">
            <Array as="points">
              <mxPoint x="1327" y="2657" />
            </Array>
          </mxGeometry>
        </mxCell>
        <mxCell id="KFw7_NxjIXX5zIOPV5az-453" value="保存反馈数据" style="verticalAlign=bottom;edgeStyle=elbowEdgeStyle;elbow=vertical;curved=0;rounded=0;endArrow=block;" edge="1" parent="1" source="KFw7_NxjIXX5zIOPV5az-410" target="KFw7_NxjIXX5zIOPV5az-411">
          <mxGeometry relative="1" as="geometry">
            <Array as="points">
              <mxPoint x="1583" y="2709" />
            </Array>
          </mxGeometry>
        </mxCell>
        <mxCell id="KFw7_NxjIXX5zIOPV5az-454" value="返回保存结果" style="verticalAlign=bottom;edgeStyle=elbowEdgeStyle;elbow=vertical;curved=0;rounded=0;dashed=1;dashPattern=2 3;endArrow=block;" edge="1" parent="1" source="KFw7_NxjIXX5zIOPV5az-411" target="KFw7_NxjIXX5zIOPV5az-410">
          <mxGeometry relative="1" as="geometry">
            <Array as="points">
              <mxPoint x="1586" y="2761" />
            </Array>
          </mxGeometry>
        </mxCell>
        <mxCell id="KFw7_NxjIXX5zIOPV5az-455" value="返回操作结果" style="verticalAlign=bottom;edgeStyle=elbowEdgeStyle;elbow=vertical;curved=0;rounded=0;dashed=1;dashPattern=2 3;endArrow=block;" edge="1" parent="1" source="KFw7_NxjIXX5zIOPV5az-410" target="KFw7_NxjIXX5zIOPV5az-409">
          <mxGeometry relative="1" as="geometry">
            <Array as="points">
              <mxPoint x="1330" y="2813" />
            </Array>
          </mxGeometry>
        </mxCell>
        <mxCell id="KFw7_NxjIXX5zIOPV5az-456" value="返回反馈发布状态" style="verticalAlign=bottom;edgeStyle=elbowEdgeStyle;elbow=vertical;curved=0;rounded=0;dashed=1;dashPattern=2 3;endArrow=block;" edge="1" parent="1" source="KFw7_NxjIXX5zIOPV5az-409" target="KFw7_NxjIXX5zIOPV5az-408">
          <mxGeometry relative="1" as="geometry">
            <Array as="points">
              <mxPoint x="1106" y="2865" />
            </Array>
          </mxGeometry>
        </mxCell>
        <mxCell id="KFw7_NxjIXX5zIOPV5az-457" value="显示反馈发布成功提示" style="verticalAlign=bottom;edgeStyle=elbowEdgeStyle;elbow=vertical;curved=0;rounded=0;dashed=1;dashPattern=2 3;endArrow=block;" edge="1" parent="1" source="KFw7_NxjIXX5zIOPV5az-408" target="KFw7_NxjIXX5zIOPV5az-405">
          <mxGeometry relative="1" as="geometry">
            <Array as="points">
              <mxPoint x="659" y="2917" />
            </Array>
          </mxGeometry>
        </mxCell>
      </root>
    </mxGraphModel>
  </diagram>
</mxfile>
